<svg xmlns="http://www.w3.org/2000/svg" width="131" height="131" viewBox="0 0 131 131"><g fill="none" stroke-linecap="round" stroke-linejoin="round"><path d="M65.5,131A65.517,65.517,0,0,1,40,5.147,65.517,65.517,0,0,1,91,125.853,65.09,65.09,0,0,1,65.5,131Zm-8-77.5v27L81.5,67Z" stroke="none"/><path d="M 65.5 124 C 73.40045166015625 124 81.06090545654297 122.4542388916016 88.26859283447266 119.4056396484375 C 95.23392486572266 116.4595260620117 101.4908828735352 112.240478515625 106.8656692504883 106.8656463623047 C 112.240478515625 101.4908828735352 116.4595260620117 95.23392486572266 119.4056396484375 88.26861572265625 C 122.4542388916016 81.06090545654297 124 73.40045166015625 124 65.5 C 124 57.59954833984375 122.4542388916016 49.93907165527344 119.4056396484375 42.73140335083008 C 116.4595489501953 35.76609420776367 112.240478515625 29.50914192199707 106.8656463623047 24.13430976867676 C 101.490837097168 18.75947570800781 95.23387908935547 14.54042816162109 88.26859283447266 11.59435749053955 C 81.06095123291016 8.545762062072754 73.40047454833984 7 65.5 7 C 57.59952545166016 7 49.93904876708984 8.545762062072754 42.73138046264648 11.59435749053955 C 35.76609420776367 14.54042816162109 29.50914192199707 18.75950050354004 24.13430976867676 24.13430976867676 C 18.75950050354004 29.50914192199707 14.54042816162109 35.76609420776367 11.59435749053955 42.73135757446289 C 8.545762062072754 49.93904876708984 7 57.59952545166016 7 65.5 C 7 73.40047454833984 8.545762062072754 81.06095123291016 11.59435749053955 88.26861572265625 C 14.54042816162109 95.23387908935547 18.75947570800781 101.490837097168 24.13430976867676 106.8656692504883 C 29.50914192199707 112.240478515625 35.76609420776367 116.4595489501953 42.73135757446289 119.4056396484375 C 49.93907165527344 122.4542388916016 57.59954833984375 124 65.5 124 M 57.5 46.49943161010742 C 58.68254852294922 46.49943161010742 59.86570358276367 46.79875564575195 60.93171310424805 47.39838027954102 L 84.93193054199219 60.89833450317383 C 87.13609313964844 62.13816833496094 88.50014495849609 64.47045135498047 88.50014495849609 66.99938201904297 C 88.50014495849609 69.52831268310547 87.13609313964844 71.860595703125 84.93193054199219 73.10042572021484 L 60.93171310424805 86.60037994384766 C 59.86557006835938 87.20008087158203 58.68269729614258 87.49939727783203 57.5 87.49932861328125 C 56.27826309204102 87.49925994873047 55.05674743652344 87.17971801757813 53.96599960327148 86.54178619384766 C 51.81933212280273 85.28630828857422 50.49992752075195 82.98616790771484 50.49992752075195 80.49933624267578 L 50.49992752075195 53.49942779541016 C 50.49992752075195 51.01259613037109 51.81933212280273 48.71245193481445 53.96599960327148 47.45697784423828 C 55.05687713623047 46.8189697265625 56.27811813354492 46.49943161010742 57.5 46.49943161010742 M 65.5 131 C 56.65764236450195 131 48.07971572875977 129.2681884765625 40.00450134277344 125.852668762207 C 32.204833984375 122.5536422729492 25.20000076293945 117.8308334350586 19.18457221984863 111.8154067993164 C 13.16916656494141 105.8000259399414 8.446332931518555 98.79518890380859 5.147333145141602 90.99547576904297 C 1.731809496879578 82.92031097412109 0 74.34238433837891 0 65.5 C 0 56.65761947631836 1.731809496879578 48.07968902587891 5.147333145141602 40.00450134277344 C 8.446332931518555 32.204833984375 13.1691427230835 25.20000076293945 19.18457221984863 19.18457221984863 C 25.20000076293945 13.1691427230835 32.204833984375 8.446332931518555 40.00450134277344 5.147333145141602 C 48.07968902587891 1.731809496879578 56.65761947631836 0 65.5 0 C 74.34238433837891 0 82.92031097412109 1.731809496879578 90.99547576904297 5.147333145141602 C 98.79518890380859 8.446332931518555 105.8000259399414 13.16916656494141 111.8154067993164 19.18457221984863 C 117.8308334350586 25.20000076293945 122.5536422729492 32.204833984375 125.852668762207 40.00450134277344 C 129.2681884765625 48.07971572875977 131 56.65764236450195 131 65.5 C 131 74.34235382080078 129.2681884765625 82.92026519775391 125.852668762207 90.99547576904297 C 122.5536422729492 98.79518890380859 117.8308334350586 105.8000259399414 111.8154067993164 111.8154067993164 C 105.8000259399414 117.8308334350586 98.79518890380859 122.5536422729492 90.99547576904297 125.852668762207 C 82.92026519775391 129.2681884765625 74.34235382080078 131 65.5 131 Z M 57.49992752075195 53.49942779541016 L 57.49992752075195 80.49933624267578 L 81.50014495849609 66.99938201904297 L 57.49992752075195 53.49942779541016 Z" stroke="none" fill="#fff"/></g></svg>